					<svg xmlns="http://www.w3.org/2000/svg" viewBox="0 0 274.9 103.9" class="card-brand-back"><defs><style>.cls-1,.cls-2{fill:#fff;}.cls-1{fill-rule:evenodd;}</style></defs><g id="Capa_2" data-name="Capa 2"><g id="Capa_1-2" data-name="Capa 1"><path class="cls-1" d="M51.9,0a52,52,0,1,0,52,51.9A51.9,51.9,0,0,0,51.9,0ZM49.4,72,48.3,53.3c-.3-6-.7-13.2-.6-18.5h-.2c-1.5,5-3.2,10.3-5.4,16.2L34.6,71.8H30.4L23.5,51.4a166.1,166.1,0,0,1-5-16.6h-.1c-.1,5.3-.5,12.5-.8,18.9L16.4,72H11.1l3-42.7h7.1L28.5,50c1.7,5.2,3.2,9.9,4.3,14.4H33A128.2,128.2,0,0,1,37.5,50l7.6-20.7h7L54.8,72Zm29-18.2V72H72.8V53.9L59.3,29.3h6.3l6,11.8c1.7,3.2,2.9,5.8,4.3,8.8H76c1.2-2.8,2.6-5.6,4.3-8.8l6.2-11.8h6.2Z"/><path class="cls-2" d="M126.1,29.3h5.6V67.4h18.2V72H126.1Z"/><path class="cls-2" d="M190.2,50.2c0,14.7-9,22.5-19.9,22.5S151.1,64,151.1,51s8.4-22.4,19.8-22.4S190.2,37.5,190.2,50.2Zm-33.2.7c0,9.1,4.9,17.3,13.6,17.3s13.7-8,13.7-17.7-4.4-17.4-13.6-17.4S157,41.5,157,50.9Z"/><path class="cls-2" d="M229.9,70.1a39.7,39.7,0,0,1-13.2,2.4c-6.4,0-11.8-1.7-16-5.7s-5.9-9.2-5.9-15.9c0-12.7,8.8-22.1,23.1-22.1a26,26,0,0,1,10.7,2l-1.3,4.5a22.8,22.8,0,0,0-9.5-1.8c-10.4,0-17.2,6.4-17.2,17.2s6.6,17.2,16.5,17.2a19.3,19.3,0,0,0,7.4-1.1V54h-8.7V49.6h14.1Z"/><path class="cls-2" d="M274.9,50.2c0,14.7-9,22.5-19.9,22.5S235.8,64,235.8,51s8.4-22.4,19.8-22.4S274.9,37.5,274.9,50.2Zm-33.2.7c0,9.1,4.9,17.3,13.6,17.3s13.7-8,13.7-17.7-4.4-17.4-13.6-17.4S241.7,41.5,241.7,50.9Z"/></g></g></svg>